<svg xmlns="http://www.w3.org/2000/svg" viewBox="0 0 128 128" width="128" height="128" role="img" aria-label="Slothing spiral mark">
  <circle cx="64" cy="64" r="51" fill="#fffaf0" stroke="#19130f" stroke-width="10"/>
  <path
    fill="#b95f34"
    d="M35.5 72.4 47.2 37l43.7-2.6 22.1 33-18.8 34.3-39.1 14.2-8.4-24.1 29.4-10.6 10.8-19.4-9.2-13.8-23.3 1.4-6 17.9 13.1 11.4 17-11.6-7.8-14.6-16.1 1.7-2.3 13.1-16.8-2.9 4.7-26.8 39.5-4.2 20.1 37.4-39.7 27.1z"
  />
  <path
    fill="#fffaf0"
    d="m54.4 49.4 23.3-1.4 9.2 13.8-10.8 19.4-14.6-2.5 17-11.6-7.8-14.6-16.1 1.7z"
    opacity=".82"
  />
</svg>
